{
  "asset": {
    "version": "2.0",
    "generator": "THREE.GLTFExporter"
  },
  "scenes": [
    {
      "nodes": [
        0
      ]
    }
  ],
  "scene": 0,
  "nodes": [
    {
      "children": [
        69
      ],
      "matrix": [
        0.01,
        0,
        0,
        0,
        0,
        0.01,
        0,
        0,
        0,
        0,
        0.01,
        0,
        0,
        0,
        0,
        1
      ]
    },
    {
      "matrix": [
        1,
        0,
        0,
        0,
        0,
        1,
        0,
        0,
        0,
        0,
        1,
        0,
        0,
        24.82764686759638,
        122.36409596340832,
        1
      ],
      "name": "Point Light",
      "extensions": {
        "KHR_lights_punctual": {
          "light": 0
        }
      }
    },
    {
      "matrix": [
        1,
        0,
        0,
        0,
        0,
        1,
        -5.815599502123295e-17,
        0,
        0,
        5.815599502123295e-17,
        1,
        0,
        0,
        5.198515470358391e-13,
        8938.915873523263,
        1
      ],
      "name": "Camera",
      "camera": 0
    },
    {
      "matrix": [
        1,
        0,
        0,
        0,
        0,
        1,
        0,
        0,
        0,
        0,
        1,
        0,
        0,
        0,
        -2.5,
        1
      ],
      "name": "Ellipse",
      "mesh": 0
    },
    {
      "name": "Ellipse Instance",
      "children": [
        3
      ]
    },
    {
      "matrix": [
        -42.65964761801472,
        33.45307360301264,
        127.23675144468719,
        0,
        85.47915194315767,
        -94.63072986611034,
        53.5395567283173,
        0,
        100.00806784837039,
        95.1528318974141,
        8.512903953238446,
        0,
        -4.3839411267843086e-13,
        5.690586890594318e-13,
        2.6556534749033744e-13,
        1.0000000000000002
      ],
      "name": "Group 21",
      "children": [
        4
      ]
    },
    {
      "matrix": [
        1,
        0,
        0,
        0,
        0,
        1,
        0,
        0,
        0,
        0,
        1,
        0,
        0,
        0,
        -2.5,
        1
      ],
      "name": "Ellipse",
      "mesh": 0
    },
    {
      "name": "Ellipse Instance",
      "children": [
        6
      ]
    },
    {
      "matrix": [
        -78.15098614623845,
        8.787666948895708,
        71.6141977874889,
        0,
        18.47518345037034,
        -99.61554946944646,
        32.385227359944274,
        0,
        69.74585300665164,
        36.23413120630061,
        71.66586896758446,
        0,
        -4.3839411267843096e-13,
        5.690586890594319e-13,
        2.655653474903375e-13,
        1.0000000000000002
      ],
      "name": "Group 20",
      "children": [
        7
      ]
    },
    {
      "matrix": [
        1,
        0,
        0,
        0,
        0,
        1,
        0,
        0,
        0,
        0,
        1,
        0,
        0,
        0,
        -2.5,
        1
      ],
      "name": "Ellipse",
      "mesh": 0
    },
    {
      "name": "Ellipse Instance",
      "children": [
        9
      ]
    },
    {
      "matrix": [
        -79.05271215922009,
        -8.099027229447724,
        20.18587995371097,
        0,
        4.113896756514046,
        -80.28813076862316,
        -16.102397413263596,
        0,
        21.357430675193807,
        -14.512653338194198,
        77.81798210784677,
        0,
        -4.38394112678431e-13,
        5.69058689059432e-13,
        2.655653474903373e-13,
        1
      ],
      "name": "Group 19",
      "children": [
        10
      ]
    },
    {
      "matrix": [
        1,
        0,
        0,
        0,
        0,
        1,
        0,
        0,
        0,
        0,
        1,
        0,
        0,
        0,
        -2.5,
        1
      ],
      "name": "Ellipse",
      "mesh": 0
    },
    {
      "name": "Ellipse Instance",
      "children": [
        12
      ]
    },
    {
      "matrix": [
        -61.694914091489025,
        15.155513263312725,
        -9.550703195905406,
        0,
        -5.575688933656088,
        -48.795460040160435,
        -41.413557091261154,
        0,
        -17.024018524597263,
        -38.942026600596876,
        48.175401358779666,
        0,
        -4.383941126784307e-13,
        5.690586890594316e-13,
        2.655653474903374e-13,
        0.9999999999999998
      ],
      "name": "Group 18",
      "children": [
        13
      ]
    },
    {
      "matrix": [
        1,
        0,
        0,
        0,
        0,
        1,
        0,
        0,
        0,
        0,
        1,
        0,
        0,
        0,
        -2.5,
        1
      ],
      "name": "Ellipse",
      "mesh": 0
    },
    {
      "name": "Ellipse Instance",
      "children": [
        15
      ]
    },
    {
      "matrix": [
        -35.200617419424574,
        33.248034917239586,
        -14.799640952338612,
        0,
        2.902912484183677,
        -17.959048803322396,
        -47.25029449721846,
        0,
        -36.2771870089908,
        -33.69844811125165,
        10.579459461277184,
        0,
        -4.383941126784308e-13,
        5.690586890594318e-13,
        2.6556534749033734e-13,
        1
      ],
      "name": "Group 17",
      "children": [
        16
      ]
    },
    {
      "matrix": [
        1,
        0,
        0,
        0,
        0,
        1,
        0,
        0,
        0,
        0,
        1,
        0,
        0,
        0,
        -2.5,
        1
      ],
      "name": "Ellipse",
      "mesh": 0
    },
    {
      "name": "Ellipse Instance",
      "children": [
        18
      ]
    },
    {
      "matrix": [
        -12.539144384938558,
        38.72530516528585,
        -4.517858925597791,
        0,
        16.705451007941846,
        1.0484948113116157,
        -37.37805528079761,
        0,
        -35.22766265362171,
        -13.286905200557149,
        -16.117083652959334,
        0,
        -4.383941126784306e-13,
        5.690586890594317e-13,
        2.6556534749033744e-13,
        0.9999999999999998
      ],
      "name": "Group 16",
      "children": [
        19
      ]
    },
    {
      "matrix": [
        1,
        0,
        0,
        0,
        0,
        1,
        0,
        0,
        0,
        0,
        1,
        0,
        0,
        0,
        -2.5,
        1
      ],
      "name": "Ellipse",
      "mesh": 0
    },
    {
      "name": "Ellipse Instance",
      "children": [
        21
      ]
    },
    {
      "matrix": [
        5.30697865330056,
        31.569136667562482,
        3.2574072399369056,
        0,
        25.814491746967345,
        -2.372684647057699,
        -19.06220075699526,
        0,
        -18.461665897415283,
        5.757177426395492,
        -25.717832619834727,
        0,
        -4.3839411267843076e-13,
        5.690586890594317e-13,
        2.6556534749033755e-13,
        0.9999999999999999
      ],
      "name": "Group 15",
      "children": [
        22
      ]
    },
    {
      "matrix": [
        1,
        0,
        0,
        0,
        0,
        1,
        0,
        0,
        0,
        0,
        1,
        0,
        0,
        0,
        -2.5,
        1
      ],
      "name": "Ellipse",
      "mesh": 0
    },
    {
      "name": "Ellipse Instance",
      "children": [
        24
      ]
    },
    {
      "matrix": [
        10.872382543976984,
        19.23438997474788,
        12.329525360628288,
        0,
        22.821854325314302,
        -9.781912605117205,
        -4.8646486452378985,
        0,
        1.068605854929824,
        13.211361912641737,
        -21.552393218425706,
        0,
        -4.383941126784309e-13,
        5.69058689059432e-13,
        2.6556534749033744e-13,
        1.0000000000000002
      ],
      "name": "Group 14",
      "children": [
        25
      ]
    },
    {
      "matrix": [
        1,
        0,
        0,
        0,
        0,
        1,
        0,
        0,
        0,
        0,
        1,
        0,
        0,
        0,
        -2.5,
        1
      ],
      "name": "Ellipse",
      "mesh": 0
    },
    {
      "name": "Ellipse Instance",
      "children": [
        27
      ]
    },
    {
      "matrix": [
        2.5556313239482393,
        10.530969996030361,
        16.703722540232103,
        0,
        15.13276280989259,
        -11.864671262182584,
        5.164880715192314,
        0,
        12.685234152268594,
        12.03225556599186,
        -9.526625200934054,
        0,
        -4.3839411267843086e-13,
        5.690586890594319e-13,
        2.6556534749033744e-13,
        1.0000000000000002
      ],
      "name": "Group 13",
      "children": [
        28
      ]
    },
    {
      "matrix": [
        1,
        0,
        0,
        0,
        0,
        1,
        0,
        0,
        0,
        0,
        1,
        0,
        0,
        0,
        -2.5,
        1
      ],
      "name": "Ellipse",
      "mesh": 0
    },
    {
      "name": "Ellipse Instance",
      "children": [
        30
      ]
    },
    {
      "matrix": [
        -3.2767988494927858,
        2.4630968897627428,
        15.25898834744105,
        0,
        5.533772557613967,
        -14.377220013557524,
        3.5091150363157615,
        0,
        14.431941413278372,
        6.0720409064119405,
        2.1190489966725066,
        0,
        -4.383941126784309e-13,
        5.69058689059432e-13,
        2.6556534749033744e-13,
        1.0000000000000002
      ],
      "name": "Group 12",
      "children": [
        31
      ]
    },
    {
      "matrix": [
        1,
        0,
        0,
        0,
        0,
        1,
        0,
        0,
        0,
        0,
        1,
        0,
        0,
        0,
        -2.5,
        1
      ],
      "name": "Ellipse",
      "mesh": 0
    },
    {
      "name": "Ellipse Instance",
      "children": [
        33
      ]
    },
    {
      "matrix": [
        -8.758604140138626,
        2.591614953419708,
        9.5527584813055,
        0,
        -2.0273444504402933,
        -12.955034068529892,
        1.655830883603445,
        0,
        9.68821640696634,
        -0.36801272945021524,
        8.982640961061907,
        0,
        -4.383941126784309e-13,
        5.69058689059432e-13,
        2.6556534749033734e-13,
        1.0000000000000002
      ],
      "name": "Group 11",
      "children": [
        34
      ]
    },
    {
      "matrix": [
        1,
        0,
        0,
        0,
        0,
        1,
        0,
        0,
        0,
        0,
        1,
        0,
        0,
        0,
        -2.5,
        1
      ],
      "name": "Ellipse",
      "mesh": 0
    },
    {
      "name": "Ellipse Instance",
      "children": [
        36
      ]
    },
    {
      "matrix": [
        -9.488405280204883,
        -0.6448061929875111,
        3.7045790963277545,
        0,
        2.3849154088461995,
        -8.805964300764016,
        4.575662497956022,
        0,
        2.907208248494005,
        5.119446627911865,
        8.337201118644902,
        0,
        -4.3839411267843076e-13,
        5.69058689059432e-13,
        2.655653474903374e-13,
        1
      ],
      "name": "Group 10",
      "children": [
        37
      ]
    },
    {
      "matrix": [
        1,
        0,
        0,
        0,
        0,
        1,
        0,
        0,
        0,
        0,
        1,
        0,
        0,
        0,
        -2.5,
        1
      ],
      "name": "Ellipse",
      "mesh": 0
    },
    {
      "name": "Ellipse Instance",
      "children": [
        39
      ]
    },
    {
      "matrix": [
        -7.489452456072058,
        -2.414812135558037,
        -0.7437259400116798,
        0,
        0.7373857256031329,
        -4.314096336828736,
        6.581882641303027,
        0,
        -2.4167557211189923,
        6.167138652744155,
        4.313007841160983,
        0,
        -4.3839411267843076e-13,
        5.690586890594318e-13,
        2.655653474903375e-13,
        1
      ],
      "name": "Group 9",
      "children": [
        40
      ]
    },
    {
      "matrix": [
        1,
        0,
        0,
        0,
        0,
        1,
        0,
        0,
        0,
        0,
        1,
        0,
        0,
        0,
        -2.5,
        1
      ],
      "name": "Ellipse",
      "mesh": 0
    },
    {
      "name": "Ellipse Instance",
      "children": [
        42
      ]
    },
    {
      "matrix": [
        -4.0962945736999465,
        -4.0164901603888765,
        -2.173690586877132,
        0,
        -1.7698299863472275,
        -1.2956898440000126,
        5.729366706546539,
        0,
        -4.210086198096793,
        4.4526113495517565,
        -0.2935635960747755,
        0,
        0.015586923456794468,
        -0.016484819792822236,
        0.0010868550161831055,
        1
      ],
      "name": "Group 8",
      "children": [
        43
      ]
    },
    {
      "matrix": [
        1,
        0,
        0,
        0,
        0,
        1,
        0,
        0,
        0,
        0,
        1,
        0,
        0,
        0,
        -2.5,
        1
      ],
      "name": "Ellipse",
      "mesh": 0
    },
    {
      "name": "Ellipse Instance",
      "children": [
        45
      ]
    },
    {
      "matrix": [
        -1.7091487716130573,
        -4.519757909456626,
        -0.2547735739344828,
        0,
        -2.8692524059853963,
        0.8709324279665358,
        3.79778593317749,
        0,
        -3.501501358677176,
        1.4925065505377497,
        -2.987678545185431,
        0,
        0.015586923456794473,
        -0.016484819792822233,
        0.0010868550161831118,
        1.0000000000000002
      ],
      "name": "Group 7",
      "children": [
        46
      ]
    },
    {
      "matrix": [
        1,
        0,
        0,
        0,
        0,
        1,
        0,
        0,
        0,
        0,
        1,
        0,
        0,
        0,
        -2.5,
        1
      ],
      "name": "Ellipse",
      "mesh": 0
    },
    {
      "name": "Ellipse Instance",
      "children": [
        48
      ]
    },
    {
      "matrix": [
        0.21817656377289354,
        -3.757818563039905,
        1.0266006942205532,
        0,
        -3.570631313945062,
        0.21817656377289224,
        1.557466326434184,
        0,
        -1.5574663264341841,
        -1.0266006942205539,
        -3.4268206850856195,
        0,
        0.015586923456794466,
        -0.016484819792822236,
        0.0010868550161831077,
        1
      ],
      "name": "Group 6",
      "children": [
        49
      ]
    },
    {
      "matrix": [
        1,
        0,
        0,
        0,
        0,
        1,
        0,
        0,
        0,
        0,
        1,
        0,
        0,
        0,
        -2.5,
        1
      ],
      "name": "Ellipse",
      "mesh": 0
    },
    {
      "name": "Ellipse Instance",
      "children": [
        51
      ]
    },
    {
      "matrix": [
        0.3179631149739317,
        -2.9308727374683525,
        -0.7684816969376844,
        0,
        -3.0226607824796385,
        -0.25327155720221933,
        -0.28470155710730616,
        0,
        0.21000218051971833,
        0.7921604504925195,
        -2.9342904711530933,
        0,
        0.015586923456794468,
        -0.016484819792822236,
        0.0010868550161831061,
        1
      ],
      "name": "Group 5",
      "children": [
        52
      ]
    },
    {
      "matrix": [
        1,
        0,
        0,
        0,
        0,
        1,
        0,
        0,
        0,
        0,
        1,
        0,
        0,
        0,
        -2.5,
        1
      ],
      "name": "Ellipse",
      "mesh": 0
    },
    {
      "name": "Ellipse Instance",
      "children": [
        54
      ]
    },
    {
      "matrix": [
        0.8673795262281138,
        -1.6481349215230414,
        -1.4417640660587578,
        0,
        -1.9425458690161277,
        0.13663659624577792,
        -1.324849263718892,
        0,
        1.0107165223198913,
        1.6770096318341035,
        -1.308995947467745,
        0,
        0.01558692345679446,
        -0.016484819792822236,
        0.0010868550161831061,
        1
      ],
      "name": "Group 4",
      "children": [
        55
      ]
    },
    {
      "matrix": [
        1,
        0,
        0,
        0,
        0,
        1,
        0,
        0,
        0,
        0,
        1,
        0,
        0,
        0,
        -2.5,
        1
      ],
      "name": "Ellipse",
      "mesh": 0
    },
    {
      "name": "Ellipse Instance",
      "children": [
        57
      ]
    },
    {
      "matrix": [
        0.9727255578236166,
        -0.45582808696442323,
        -1.4732595365859407,
        0,
        -1.1313884713626232,
        0.9727255578236169,
        -1.0479661415689023,
        0,
        1.047966141568903,
        1.4732595365859404,
        0.2360957895306468,
        0,
        0.015586923456794462,
        -0.016484819792822233,
        0.0010868550161831053,
        0.9999999999999998
      ],
      "name": "Group 3",
      "children": [
        58
      ]
    },
    {
      "matrix": [
        1,
        0,
        0,
        0,
        0,
        1,
        0,
        0,
        0,
        0,
        1,
        0,
        0,
        0,
        -2.5,
        1
      ],
      "name": "Ellipse",
      "mesh": 0
    },
    {
      "name": "Ellipse Instance",
      "children": [
        60
      ]
    },
    {
      "matrix": [
        1.205450509735146,
        1.7385272628770495e-16,
        -0.6959671762903582,
        0,
        -0.34798358814517893,
        1.2054505097351464,
        -0.6027252548675732,
        0,
        0.6027252548675728,
        0.695967176290358,
        1.043950764435537,
        0,
        0.015586923456794466,
        -0.016484819792822236,
        0.0010868550161831103,
        1
      ],
      "name": "Group 2",
      "children": [
        61
      ]
    },
    {
      "matrix": [
        1,
        0,
        0,
        0,
        0,
        1,
        0,
        0,
        0,
        0,
        1,
        0,
        0,
        0,
        -2.5,
        1
      ],
      "name": "Ellipse",
      "mesh": 0
    },
    {
      "name": "Ellipse",
      "children": [
        63
      ]
    },
    {
      "matrix": [
        1,
        0,
        0,
        0,
        0,
        1,
        0,
        0,
        0,
        0,
        1,
        0,
        0.015586923456794466,
        -0.016484819792822236,
        0.001086855016183108,
        1
      ],
      "name": "Group",
      "children": [
        64
      ]
    },
    {
      "name": "Group 22",
      "children": [
        5,
        8,
        11,
        14,
        17,
        20,
        23,
        26,
        29,
        32,
        35,
        38,
        41,
        44,
        47,
        50,
        53,
        56,
        59,
        62,
        65
      ]
    },
    {
      "matrix": [
        1,
        0,
        0,
        0,
        0,
        1,
        -6.108797421768133e-17,
        0,
        0,
        6.108797421768133e-17,
        1,
        0,
        -10.169122477001928,
        77.55420041904954,
        17209.229875088,
        1
      ],
      "name": "Personal Camera",
      "camera": 1
    },
    {
      "matrix": [
        1,
        0,
        0,
        0,
        0,
        1,
        0,
        0,
        0,
        0,
        1,
        0,
        0,
        1,
        0,
        1
      ],
      "name": "Default Ambient Light"
    },
    {
      "name": "Scene 1",
      "children": [
        1,
        2,
        66,
        67,
        68
      ]
    }
  ],
  "extensions": {
    "KHR_lights_punctual": {
      "lights": [
        {
          "name": "Point Light",
          "color": [
            0.2803843137254901,
            0.18039215686274512,
            1
          ],
          "intensity": 6.535,
          "type": "point",
          "range": 3330
        }
      ]
    }
  },
  "cameras": [
    {
      "type": "perspective",
      "perspective": {
        "aspectRatio": 2.1041095890410957,
        "yfov": 0.7853981633974483,
        "zfar": 100000,
        "znear": 70
      },
      "name": "Camera"
    },
    {
      "type": "perspective",
      "perspective": {
        "aspectRatio": 2.1041095890410957,
        "yfov": 0.7853981633974483,
        "zfar": 100000,
        "znear": 70
      },
      "name": "Camera"
    }
  ],
  "bufferViews": [
    {
      "buffer": 0,
      "byteOffset": 0,
      "byteLength": 5760,
      "target": 34962,
      "byteStride": 12
    },
    {
      "buffer": 0,
      "byteOffset": 5760,
      "byteLength": 5760,
      "target": 34962,
      "byteStride": 12
    },
    {
      "buffer": 0,
      "byteOffset": 11520,
      "byteLength": 3840,
      "target": 34962,
      "byteStride": 8
    },
    {
      "buffer": 0,
      "byteOffset": 15360,
      "byteLength": 5760,
      "target": 34963
    }
  ],
  "buffers": [
    {
      "byteLength": 21120,
      "uri": "data:application/octet-stream;base64,"
    }
  ],
  "accessors": [
    {
      "bufferView": 0,
      "componentType": 5126,
      "count": 480,
      "max": [
        111.5,
        111.5,
        4
      ],
      "min": [
        -111.5,
        -111.5,
        0
      ],
      "type": "VEC3"
    },
    {
      "bufferView": 1,
      "componentType": 5126,
      "count": 480,
      "max": [
        0.9985530972480774,
        0.9985530972480774,
        1
      ],
      "min": [
        -0.9985530972480774,
        -0.9985530972480774,
        -1
      ],
      "type": "VEC3"
    },
    {
      "bufferView": 2,
      "componentType": 5126,
      "count": 480,
      "max": [
        1,
        1
      ],
      "min": [
        0,
        0
      ],
      "type": "VEC2"
    },
    {
      "bufferView": 3,
      "componentType": 5125,
      "count": 1440,
      "max": [
        479
      ],
      "min": [
        0
      ],
      "type": "SCALAR"
    }
  ],
  "meshes": [
    {
      "primitives": [
        {
          "mode": 4,
          "attributes": {
            "POSITION": 0,
            "NORMAL": 1,
            "TEXCOORD_0": 2
          },
          "extras": {
            "shape": {
              "points": [
                -111.5,
                0,
                -111.5,
                -61.5797496027,
                -111.5,
                61.5797496027,
                0,
                0,
                111.5,
                -61.5797496027,
                111.5,
                61.5797496027,
                111.5,
                0,
                111.5,
                0,
                111.5,
                61.5797496027,
                111.5,
                -61.5797496027,
                0,
                0,
                -111.5,
                61.5797496027,
                -111.5,
                -61.5797496027,
                -111.5,
                0
              ],
              "shapeHoles": [
                {
                  "points": [
                    0,
                    -107.04,
                    -59.116559618592,
                    -107.04,
                    59.116559618592,
                    -107.04,
                    0,
                    107.04,
                    0,
                    107.04,
                    -59.116559618592,
                    107.04,
                    59.116559618592,
                    0,
                    0,
                    107.04,
                    59.116559618592,
                    107.04,
                    -59.116559618592,
                    107.04,
                    0,
                    -107.04,
                    0,
                    -107.04,
                    59.116559618592,
                    -107.04,
                    -59.116559618592,
                    0
                  ],
                  "shapeHoles": [],
                  "isClosed": true,
                  "roundness": 0
                }
              ],
              "isClosed": true,
              "roundness": 0
            },
            "parameters": {
              "width": 223,
              "depth": 4,
              "spikes": 58,
              "angle": 360,
              "innerRadius": 96,
              "extrudeBevelSize": 0,
              "extrudeBevelSegments": 1,
              "height": 223,
              "type": "EllipseGeometry"
            },
            "type": "EllipseGeometry"
          },
          "indices": 3
        }
      ]
    }
  ],
  "extensionsUsed": [
    "KHR_lights_punctual"
  ]
}